{"title":"IMPACT.WRESTLING.2014.10.01.HDTV.XviD-FICEK9","uid":11193605,"size":782979489,"categoryP":"video","categoryS":"tv_shows","magnet":"?xt=urn:btih:b12938c45789077f0ef3a7a3413c106e7d249e13&amp;dn=IMPACT.WRESTLING.2014.10.01.HDTV.XviD-FICEK9&amp;tr=udp%3A%2F%2Ftracker.openbittorrent.com%3A80&amp;tr=udp%3A%2F%2Fopen.demonii.com%3A1337&amp;tr=udp%3A%2F%2Ftracker.coppersurfer.tk%3A6969&amp;tr=udp%3A%2F%2Fexodus.desync.com%3A6969","seeders":2,"leechers":0,"uploader":"FICEK9","files":2,"time":1413043695,"description":"\n   General\n      Complete name : IMPACT.WRESTLING.2014.10.01.HDTV.XviD-FICEK9.avi\n      Format : AVI\n      Format/Info : Audio Video Interleave\n      File size : 747 MiB\n      Duration : 1h 24mn\n      Overall bit rate mode : Variable\n      Overall bit rate : 1 229 Kbps\n      Writing application : MEncoder SVN-r33883(20110719-gcc4.5.2)\n      Writing library : MPlayer\n   Video #0\n      ID : 0\n      Format : MPEG-4 Visual\n      Format profile : Advanced Simple@L5\n      Format settings, BVOP : 2\n      Format settings, QPel : No\n      Format settings, GMC : No warppoints\n      Format settings, Matrix : Default (H.263)\n      Codec ID : XVID\n      Codec ID/Hint : XviD\n      Duration : 1h 24mn\n      Bit rate : 1 091 Kbps\n      Width : 624 pixels\n      Height : 352 pixels\n      Display aspect ratio : 16:9\n      Frame rate : 29.970 fps\n      Color space : YUV\n      Chroma subsampling : 4:2:0\n      Bit depth : 8 bits\n      Scan type : Progressive\n      Compression mode : Lossy\n      Bits/(Pixel*Frame) : 0.166\n      Stream size : 663 MiB (89%)\n      Writing library : XviD 1.2.1 (UTC 2008-12-04)\n   Audio #1\n      ID : 1\n      Format : MPEG Audio\n      Format version : Version 1\n      Format profile : Layer 3\n      Mode : Joint stereo\n      Mode extension : MS Stereo\n      Codec ID : 55\n      Codec ID/Hint : MP3\n      Duration : 1h 24mn\n      Bit rate mode : Variable\n      Bit rate : 124 Kbps\n      Channel(s) : 2 channels\n      Sampling rate : 48.0 KHz\n      Compression mode : Lossy\n      Stream size : 75.5 MiB (10%)\n      Alignment : Aligned on interleaves\n      Interleave, duration : 24 ms (0.72 video frame)\n      Interleave, preload duration : 525 ms\n","torrent":{"xt":"urn:btih:b12938c45789077f0ef3a7a3413c106e7d249e13","amp;dn":"IMPACT.WRESTLING.2014.10.01.HDTV.XviD-FICEK9","amp;tr":["udp%3A%2F%2Ftracker.openbittorrent.com%3A80","udp%3A%2F%2Fopen.demonii.com%3A1337","udp%3A%2F%2Ftracker.coppersurfer.tk%3A6969","udp%3A%2F%2Fexodus.desync.com%3A6969"],"infoHash":"b12938c45789077f0ef3a7a3413c106e7d249e13","infoHashBuffer":{"type":"Buffer","data":[177,41,56,196,87,137,7,127,14,243,167,163,65,60,16,110,125,36,158,19]},"announce":[],"urlList":[]}}